HIERARCHY
ROOT root
{
	OFFSET	0	13.1	24.9
	CHANNELS 6  Xposition Yposition Zposition Xrotation Yrotation Zrotation
	JOINT spine_1
	{
		OFFSET	0	9.99999	0
		CHANNELS 3  Xrotation Yrotation Zrotation
		JOINT spine_2
		{
			OFFSET	0	112	-10
			CHANNELS 3  Xrotation Yrotation Zrotation
			JOINT spine_3
			{
				OFFSET	0	206.5	19.3
				CHANNELS 3  Xrotation Yrotation Zrotation
				JOINT spine_4
				{
					OFFSET	0	110.4	14.6
					CHANNELS 3  Xrotation Yrotation Zrotation
					JOINT neck_1
					{
						OFFSET	0	71.8	-50.3
						CHANNELS 3  Xrotation Yrotation Zrotation
						JOINT neck_2
						{
							OFFSET	0	86.2	-25.8
							CHANNELS 3  Xrotation Yrotation Zrotation
							JOINT head_ee
							{
								OFFSET	0	179.8	-8.7
								CHANNELS 3  Xrotation Yrotation Zrotation
								End Site
								{
									OFFSET	1	0	0
								}
							}
						}
					}
					JOINT left_clavicle
					{
						OFFSET	-43.2	22.4	-70.8
						CHANNELS 3  Xrotation Yrotation Zrotation
						JOINT left_shoulder
						{
							OFFSET	-93.9	-5.79999	48.7
							CHANNELS 3  Xrotation Yrotation Zrotation
							JOINT left_elbow
							{
								OFFSET	-291.4	-30.8	15.2
								CHANNELS 3  Xrotation Yrotation Zrotation
								JOINT left_lowarm_twist
								{
									OFFSET	-110.7	-3.89999	13.6
									CHANNELS 3  Xrotation Yrotation Zrotation
									JOINT left_hand
									{
										OFFSET	-110.7	-3.89999	13.6
										CHANNELS 3  Xrotation Yrotation Zrotation
										JOINT left_ee
										{
											OFFSET	-80.8	-5.10001	12.1
											CHANNELS 3  Xrotation Yrotation Zrotation
											End Site
											{
												OFFSET	1	0	0
											}
										}
									}
								}
							}
						}
					}
					JOINT right_clavicle
					{
						OFFSET	43.2	22.4	-70.8
						CHANNELS 3  Xrotation Yrotation Zrotation
						JOINT right_shoulder
						{
							OFFSET	93.9	-5.79999	48.7
							CHANNELS 3  Xrotation Yrotation Zrotation
							JOINT right_elbow
							{
								OFFSET	291.4	-30.8	15.2
								CHANNELS 3  Xrotation Yrotation Zrotation
								JOINT right_lowarm_twist
								{
									OFFSET	110.7	-3.89999	13.6
									CHANNELS 3  Xrotation Yrotation Zrotation
									JOINT right_hand
									{
										OFFSET	110.7	-3.89999	13.6
										CHANNELS 3  Xrotation Yrotation Zrotation
										JOINT right_ee
										{
											OFFSET	80.8	-5.10001	12.1
											CHANNELS 3  Xrotation Yrotation Zrotation
											End Site
											{
												OFFSET	1	0	0
											}
										}
									}
								}
							}
						}
					}
				}
			}
		}
	}
	JOINT left_hip
	{
		OFFSET	-82.8	-127.5	0.300001
		CHANNELS 3  Xrotation Yrotation Zrotation
		JOINT left_knee
		{
			OFFSET	-28.2	-396.7	2.2
			CHANNELS 3  Xrotation Yrotation Zrotation
			JOINT left_ankle
			{
				OFFSET	-11.7	-411.3	35.4
				CHANNELS 3  Xrotation Yrotation Zrotation
				JOINT left_toes
				{
					OFFSET	0	-60	-88.6
					CHANNELS 3  Xrotation Yrotation Zrotation
					JOINT left_foot_ee
					{
						OFFSET	-22.5	-16.5	-42.2
						CHANNELS 3  Xrotation Yrotation Zrotation
						End Site
						{
							OFFSET	1	0	0
						}
					}
				}
			}
		}
	}
	JOINT right_hip
	{
		OFFSET	82.8	-127.5	0.300001
		CHANNELS 3  Xrotation Yrotation Zrotation
		JOINT right_knee
		{
			OFFSET	28.2	-396.7	2.2
			CHANNELS 3  Xrotation Yrotation Zrotation
			JOINT right_ankle
			{
				OFFSET	11.7	-411.3	35.4
				CHANNELS 3  Xrotation Yrotation Zrotation
				JOINT right_toes
				{
					OFFSET	0	-60	-88.6
					CHANNELS 3  Xrotation Yrotation Zrotation
					JOINT right_foot_ee
					{
						OFFSET	22.5	-16.5	-42.2
						CHANNELS 3  Xrotation Yrotation Zrotation
						End Site
						{
							OFFSET	1	0	0
						}
					}
				}
			}
		}
	}
}
MOTION
Frames: 12
Frame Time: 0.02
2526.63 639.443 -962.672 -16.1445 50.7071 14.869 4.4421 0.340872 0.586127 4.44224 0.302885 0.606628 4.44535 0.219032 0.641686 4.44491 0.317623 0.599043 -0.476391 2.92635 -0.993998 -0.445459 6.03856 -0.736494 -0.0 0.0 -0.0 2.56344 12.5785 5.74922 -28.9275 -22.4301 68.453 0.301864 -8.50488 0.0224454 35.3464 -0.129595 -4.44262 0.313581 7.36116 5.1085 -0.0 0.0 -0.0 10.2434 27.5947 -19.2303 9.1974 -9.20269 -66.9753 1.32324 33.243 -0.395033 29.8254 -0.0717176 3.7666 5.40765 9.59933 -34.3756 0.0 0.0 0.0 43.7174 5.3303 -9.07159 -13.1915 0.314614 1.99551 22.6468 2.57187 -3.06198 -29.1189 0.0 0.0 -0.0 0.0 -0.0 5.93637 -12.3945 5.6731 -30.0129 -0.0435737 -4.55335 33.2424 17.3813 4.59207 4.21868 -0.0 -0.0 0.0 0.0 0.0 
2505.96 642.168 -970.781 -16.5473 50.7973 15.4734 4.60086 0.228191 0.567083 4.60102 0.191644 0.580454 4.60284 0.113935 0.60056 4.6024 0.207351 0.57503 -1.62085 3.52674 -0.971514 -1.58607 7.1278 -0.58056 -0.0 0.0 -0.0 3.05512 11.3048 6.51505 -28.7062 -22.1221 68.5093 0.386618 -10.8421 0.0366898 36.4876 -0.179287 -4.57979 0.361587 5.25379 4.57287 -0.0 0.0 -0.0 10.6243 27.7309 -20.0678 8.51924 -11.0629 -66.9789 1.16001 29.8821 -0.309553 27.5875 -0.134596 3.48766 5.27268 12.5364 -31.668 0.0 0.0 0.0 43.7375 5.61119 -9.14534 -15.2177 0.321936 2.30628 23.0893 5.14457 -3.10756 -27.7877 0.0 0.0 -0.0 0.0 -0.0 5.6941 -9.47904 5.07298 -31.2692 0.0066383 -4.73962 31.624 14.6436 4.33461 4.93754 -0.0 -0.0 0.0 0.0 0.0 
2479.96 645.66 -981.129 -16.1972 51.3361 15.5471 4.56676 0.181482 0.587442 4.56694 0.143735 0.597799 4.5683 0.0637945 0.611517 4.56781 0.15957 0.593769 -2.55153 4.42122 -1.20679 -2.50468 8.9593 -0.649358 -0.0 0.0 -0.0 3.22526 9.18541 6.71393 -27.3916 -22.9517 69.3176 0.384642 -10.788 0.036319 37.3677 -0.219477 -4.6849 0.49345 2.20081 4.20263 -0.0 0.0 -0.0 10.2228 27.6674 -19.1759 5.52717 -11.5672 -68.4838 1.13106 29.2608 -0.29527 25.9005 -0.174763 3.2759 5.39685 14.4237 -31.5549 0.0 0.0 0.0 43.8055 5.12782 -9.26582 -20.0295 0.295288 3.04387 22.5814 7.11378 -3.04554 -26.9472 0.0 0.0 -0.0 0.0 -0.0 5.83715 -6.00841 4.92886 -34.2175 0.140442 -5.17216 28.9548 11.3595 3.95978 5.60201 -0.0 -0.0 0.0 0.0 0.0 
2447.05 654.198 -994.263 -14.9103 51.778 14.2154 4.57985 -0.016157 0.66867 4.5801 -0.0586725 0.666287 4.57923 -0.145755 0.652792 4.57864 -0.040832 0.667618 -3.97928 5.22676 -0.506133 -3.94469 9.94177 0.306322 -0.0 0.0 -0.0 3.71727 8.0565 7.53689 -24.8347 -21.7148 68.1521 0.372064 -10.4432 0.0340019 37.8002 -0.239816 -4.73632 0.595459 -0.96823 3.57974 -0.0 0.0 -0.0 10.9748 27.0471 -20.9362 1.71159 -13.6475 -68.2695 1.09996 28.5846 -0.280226 24.6432 -0.200633 3.11738 5.50845 16.6406 -31.096 0.0 0.0 0.0 41.3559 5.25925 -8.36537 -22.4745 0.258044 3.41717 21.7242 9.09612 -2.94417 -26.329 0.0 0.0 -0.0 0.0 -0.0 7.14318 1.17371 4.33716 -39.32 0.424074 -5.90287 28.3874 7.50846 3.82328 4.16851 -0.0 -0.0 0.0 0.0 0.0 
2425.18 658.18 -1002.72 -14.2043 52.8045 13.7345 4.56838 -0.164598 0.628801 4.56857 -0.204275 0.617054 4.56623 -0.283761 0.584777 4.56581 -0.187847 0.622251 -5.17518 6.10421 -0.181931 -5.14861 11.3707 0.886402 -0.0 0.0 -0.0 3.94851 7.77622 7.93997 -23.2929 -21.3354 67.8141 0.367452 -10.3165 0.033171 38.0728 -0.25284 -4.76866 0.629988 -3.03267 2.95302 -0.0 0.0 -0.0 10.9469 26.1991 -20.9692 -1.30354 -14.4681 -68.5504 1.07041 27.934 -0.266235 23.8358 -0.215409 3.01531 5.62356 18.3556 -30.9168 0.0 0.0 0.0 40.0548 5.06426 -7.83893 -24.9858 0.203241 3.79862 20.4877 11.0812 -2.79777 -26.0877 0.0 0.0 -0.0 0.0 -0.0 8.45885 5.07601 3.40903 -41.4211 0.559642 -6.19606 27.375 4.62596 3.66859 3.53335 -0.0 -0.0 0.0 0.0 0.0 
2407.25 664.038 -1007.54 -14.886 53.8185 14.4654 4.53783 0.015816 0.626213 4.53805 -0.0240628 0.62595 4.53763 -0.106589 0.617278 4.53709 -0.00776546 0.626364 -6.0773 5.8027 -1.42983 -6.05192 11.7805 -0.346904 -0.0 0.0 -0.0 4.65609 7.25953 9.19942 -22.7873 -22.9038 66.2327 0.389375 -10.9176 0.0372101 37.8697 -0.243122 -4.74458 0.725827 -5.54584 2.54441 -0.0 0.0 -0.0 10.904 25.8073 -20.9154 -4.13757 -14.3622 -68.5758 1.0167 26.7313 -0.241574 23.8697 -0.214817 3.0196 5.41182 20.0623 -28.2631 0.0 0.0 0.0 38.6191 5.36299 -7.27935 -24.8448 0.206762 3.77726 24.6589 8.40813 -3.29256 -26.0118 0.0 0.0 -0.0 0.0 -0.0 10.2381 5.98423 2.14223 -45.6722 0.866481 -6.77336 25.4585 2.17948 3.42367 3.21372 -0.0 -0.0 0.0 0.0 0.0 
2382.62 667.858 -1015.39 -13.8173 54.9312 13.6258 4.47126 -0.00497631 0.599721 4.47146 -0.0431273 0.598189 4.47086 -0.122501 0.587098 4.47038 -0.0282446 0.599076 -7.6442 5.72743 -1.3038 -7.64418 11.6001 -0.0783479 -0.0 0.0 -0.0 4.95007 7.4329 9.73368 -20.4677 -22.4856 65.0801 0.396659 -11.1168 0.0386022 37.5422 -0.227635 -4.70566 0.670352 -8.23257 1.03113 -0.0 0.0 -0.0 11.1043 24.5331 -21.5011 -5.97644 -15.7445 -68.4415 0.876505 23.47 -0.182077 22.164 -0.241421 2.80335 5.10675 22.1834 -24.7433 0.0 0.0 0.0 35.808 5.87637 -6.32794 -24.9343 0.204533 3.79082 28.7692 9.59286 -3.76135 -28.3983 0.0 0.0 -0.0 0.0 -0.0 12.4408 7.82382 0.0384608 -49.968 1.21938 -7.33243 25.3736 2.16998 3.41377 3.12337 -0.0 -0.0 0.0 0.0 0.0 
2352.58 672.335 -1024.24 -12.7174 55.8088 12.8157 4.36713 0.0031546 0.432308 4.36724 -0.0243604 0.431633 4.36698 -0.082462 0.424382 4.36673 -0.0144045 0.432079 -7.42768 5.19124 -2.47312 -7.40864 11.4306 -1.37929 -0.0 0.0 -0.0 5.35734 6.9599 10.4694 -18.996 -23.8269 64.3344 0.420478 -11.7662 0.0433271 37.0315 -0.203935 -4.64482 0.699984 -10.1727 0.402499 -0.0 0.0 -0.0 10.4689 24.0846 -20.111 -8.96447 -16.1919 -69.7603 0.84337 22.674 -0.169092 21.283 -0.252638 2.69137 5.08139 24.0817 -23.3924 0.0 0.0 0.0 32.78 6.7379 -5.80911 -25.2559 0.196353 3.83949 32.9675 6.7804 -4.19749 -29.9345 0.0 0.0 -0.0 0.0 -0.0 14.8484 7.04784 -0.864231 -52.3553 1.43342 -7.63139 23.4615 2.10012 3.18868 2.88088 -0.0 -0.0 0.0 0.0 0.0 
2325.41 678.151 -1035.51 -12.5265 56.1287 12.701 4.66007 -0.118266 0.344556 4.66012 -0.139951 0.336332 4.65926 -0.18251 0.315271 4.65915 -0.130429 0.340138 -7.864 5.26906 -1.97235 -7.85883 11.2248 -0.820033 -0.0 0.0 -0.0 5.71595 6.91679 11.1247 -16.776 -24.5064 61.7855 0.539037 -14.9507 0.07073 37.6727 -0.233781 -4.72118 0.605859 -13.0508 -1.46861 -0.0 0.0 -0.0 10.4077 21.6885 -20.1875 -12.1146 -15.9234 -70.0547 0.74036 20.1406 -0.131484 20.4112 -0.262041 2.58041 4.89063 24.9635 -21.5282 0.0 0.0 0.0 29.8765 6.96894 -5.34416 -24.6532 0.21146 3.74824 34.6682 4.94083 -4.36639 -31.094 0.0 0.0 -0.0 0.0 -0.0 17.5934 7.34394 -1.11174 -54.9663 1.68165 -7.94801 22.82 2.75596 3.11774 2.4822 -0.0 -0.0 0.0 0.0 0.0 
2300.69 681.762 -1041.89 -12.7312 55.9294 13.0603 4.7343 -0.223296 0.105559 4.73428 -0.22956 0.0911363 4.73393 -0.239385 0.0608155 4.734 -0.226776 0.0978588 -7.40725 5.14559 -1.4642 -7.40152 10.6245 -0.384255 -0.0 0.0 -0.0 6.06603 5.87019 11.7749 -14.6634 -23.5328 61.828 0.553231 -15.326 0.0744368 36.6766 -0.187784 -4.60242 0.696233 -13.603 -1.09853 -0.0 0.0 -0.0 10.0999 18.8269 -19.7079 -14.2587 -15.0711 -69.2494 0.634422 17.4467 -0.0973457 19.1586 -0.272593 2.42078 4.42942 24.8492 -18.4571 0.0 0.0 0.0 27.3618 6.60021 -4.68085 -23.3932 0.239936 3.55699 38.2566 6.2375 -4.70444 -31.4552 0.0 0.0 -0.0 0.0 -0.0 20.498 8.52145 -0.133108 -57.8958 1.97711 -8.28955 22.2433 4.39532 3.06419 2.87639 -0.0 -0.0 0.0 0.0 0.0 
2271.84 686.574 -1050.13 -12.8978 54.6992 13.0469 4.86622 -0.389356 -0.0778406 4.86615 -0.383613 -0.102459 4.86689 -0.367576 -0.15015 4.86707 -0.386676 -0.0902132 -6.58642 5.10933 -0.957768 -6.57584 10.1688 0.0420294 -0.0 0.0 -0.0 6.53206 6.91694 12.6247 -13.6875 -23.6473 61.0512 0.580507 -16.0436 0.0818109 35.959 -0.155932 -4.51638 0.735466 -14.9929 -1.43624 -0.0 0.0 -0.0 9.76154 16.4306 -19.0945 -16.875 -14.6113 -68.8599 0.598125 16.5043 -0.0867479 18.1689 -0.278461 2.2945 4.30493 25.5588 -17.2066 0.0 0.0 0.0 25.141 6.4722 -4.23971 -22.6016 0.255674 3.43652 40.6834 5.67577 -4.9169 -31.5797 0.0 0.0 -0.0 0.0 -0.0 22.9906 10.6946 -0.81527 -61.9821 2.41777 -8.74012 21.9573 2.78166 3.01351 3.04622 -0.0 -0.0 0.0 0.0 0.0 
2246.55 688.349 -1055.65 -12.4067 52.7169 12.4174 5.12596 -0.427501 -0.254368 5.12591 -0.410448 -0.281056 5.12796 -0.373116 -0.329005 5.12806 -0.420393 -0.26595 -6.85957 5.05798 -0.682281 -6.85426 9.88316 0.331122 -0.0 0.0 -0.0 7.70701 7.83947 14.765 -11.405 -24.6398 58.589 0.618156 -17.0256 0.0925258 35.5191 -0.136938 -4.46344 0.769279 -16.127 -1.70176 -0.0 0.0 -0.0 9.09329 14.8158 -17.6978 -18.3745 -13.5686 -69.1645 0.568598 15.7309 -0.0785508 17.5336 -0.281078 2.2134 4.16321 25.382 -16.3617 0.0 0.0 0.0 22.4898 6.63594 -3.65547 -21.2947 0.278005 3.23723 40.7028 4.62813 -4.91812 -31.8367 0.0 0.0 -0.0 0.0 -0.0 26.794 10.9129 -1.50939 -63.4873 2.58808 -8.89809 21.6787 2.97098 2.98122 2.80326 -0.0 -0.0 0.0 0.0 0.0 
